# xmcd CD database file
#
# Track frame offsets:
#	183
#	27793
#	52345
#	69203
#	89228
#	111978
#	134545
#	158435
#	171800
#	194730
#
# Disc length: 2904 seconds
#
# Revision: 0
# Processed by: cddbd v1.5.2PL0 Copyright (c) Steve Scherf et al.
# Submitted via: CDex 1.51
#
DISCID=900b560a
DTITLE=Blackbirds of Paradise - The Blackbirds Fly Right
DYEAR=1900
DGENRE=Jazz
TTITLE0=9.20 Special
TTITLE1=Blue Moon
TTITLE2=There's A Rainbow On My Shoulder
TTITLE3=When It's Sleepy Time Down South
TTITLE4=Somebody Loves Me
TTITLE5=Is You Is
TTITLE6=Basin Street Blues
TTITLE7=Doin' The Frog
TTITLE8=Echoes Of Harlem
TTITLE9=Diga Diga Doo
EXTD=
EXTT0=
EXTT1=
EXTT2=
EXTT3=
EXTT4=
EXTT5=
EXTT6=
EXTT7=
EXTT8=
EXTT9=
PLAYORDER=
